<svg id="LOGO" xmlns="http://www.w3.org/2000/svg" xmlns:xlink="http://www.w3.org/1999/xlink" width="182.377" height="52.373" viewBox="0 0 182.377 52.373">
  <defs>
    <clipPath id="clip-path">
      <rect id="Rectangle_178" data-name="Rectangle 178" width="182.377" height="52.373" fill="#fff"/>
    </clipPath>
  </defs>
  <g id="Group_1736" data-name="Group 1736" clip-path="url(#clip-path)">
    <path id="Path_3890" data-name="Path 3890" d="M65.71,11.878q-.208,2.53-3.161,2.529H59.372a3.457,3.457,0,0,1-2.23-.745,2.224,2.224,0,0,1-.932-1.784V5.536a2.242,2.242,0,0,1,.917-1.774,3.416,3.416,0,0,1,2.245-.755h3.177q2.984,0,3.161,2.529H64.122a1.386,1.386,0,0,0-1.573-1.258H60.96a1.739,1.739,0,0,0-1.12.371,1.1,1.1,0,0,0-.468.887v6.342a1.108,1.108,0,0,0,.464.885,1.737,1.737,0,0,0,1.124.374h1.589a1.381,1.381,0,0,0,1.573-1.259Z" transform="translate(0 0)" fill="#fff"/>
    <path id="Path_3891" data-name="Path 3891" d="M71.721,14.407V5.536a2.222,2.222,0,0,1,.932-1.784,3.463,3.463,0,0,1,2.23-.745H78.06a3.456,3.456,0,0,1,2.23.748,2.229,2.229,0,0,1,.931,1.781v8.871H78.06V9.337H74.883v5.07Zm3.162-6.329H78.06V5.536a1.1,1.1,0,0,0-.472-.887,1.872,1.872,0,0,0-2.237,0,1.1,1.1,0,0,0-.468.887Z" transform="translate(0 0)" fill="#fff"/>
    <path id="Path_3892" data-name="Path 3892" d="M87.233,14.407V3.007h6.339a3.456,3.456,0,0,1,2.23.748,2.229,2.229,0,0,1,.931,1.781v.689a2.4,2.4,0,0,1-.727,1.636,3.2,3.2,0,0,1-2.434.786h1.573a1.741,1.741,0,0,1,1.121.374,1.118,1.118,0,0,1,.467.9v4.488H93.572v-3.8a1.112,1.112,0,0,0-.472-.9,1.737,1.737,0,0,0-1.117-.374H90.395v5.07Zm3.162-6.329h1.588A1.734,1.734,0,0,0,93.1,7.7a1.118,1.118,0,0,0,.472-.894V5.536a1.1,1.1,0,0,0-.472-.887,1.747,1.747,0,0,0-1.117-.371H90.395Z" transform="translate(0 0)" fill="#fff"/>
    <path id="Path_3893" data-name="Path 3893" d="M109.082,3.007h3.161v7.072a3.808,3.808,0,0,1-1.592,3.049,5.9,5.9,0,0,1-3.818,1.279h-4.09V3.007H105.9v10.13h1.588a1.736,1.736,0,0,0,1.125-.374,1.111,1.111,0,0,0,.464-.885Z" transform="translate(0 0)" fill="#fff"/>
    <path id="Path_3894" data-name="Path 3894" d="M118.255,14.407V3.007h7.912V4.278h-4.75v3.8h3.177V9.337h-3.177v3.8h4.75v1.271Z" transform="translate(0 0)" fill="#fff"/>
    <path id="Path_3895" data-name="Path 3895" d="M61.109,46.837q-.208,2.53-3.161,2.529H54.771a3.457,3.457,0,0,1-2.23-.745,2.224,2.224,0,0,1-.932-1.784V40.495a2.242,2.242,0,0,1,.917-1.774,3.416,3.416,0,0,1,2.245-.755h3.177q2.983,0,3.161,2.529H59.521a1.386,1.386,0,0,0-1.573-1.258H56.359a1.739,1.739,0,0,0-1.12.371,1.1,1.1,0,0,0-.468.887v6.342a1.108,1.108,0,0,0,.464.885,1.737,1.737,0,0,0,1.124.374h1.589a1.381,1.381,0,0,0,1.573-1.259Z" transform="translate(0 0)" fill="#fff"/>
    <path id="Path_3896" data-name="Path 3896" d="M67.119,49.366v-11.4h3.162v5.071h3.177V37.966h3.161v11.4H73.458V44.3H70.281v5.07Z" transform="translate(0 0)" fill="#fff"/>
    <rect id="Rectangle_175" data-name="Rectangle 175" width="3.169" height="11.4" transform="translate(84.205 37.966)" fill="#fff"/>
    <path id="Path_3897" data-name="Path 3897" d="M102.893,40.495H101.32a1.366,1.366,0,0,0-1.5-1.271,2.056,2.056,0,0,0-1.255.322,1.124,1.124,0,0,0-.423.956,1.193,1.193,0,0,0,.468.89l3.354,3.016a2.4,2.4,0,0,1,.928,1.787v.642a2.234,2.234,0,0,1-.928,1.778,3.435,3.435,0,0,1-2.234.751H98.143a3.73,3.73,0,0,1-2.367-.636,2.276,2.276,0,0,1-.795-1.893H96.57a1.913,1.913,0,0,0-.015.208.845.845,0,0,0,.5.783,2.257,2.257,0,0,0,1.091.268,1.825,1.825,0,0,0,1.217-.328,1.192,1.192,0,0,0,.371-.949,1.176,1.176,0,0,0-.467-.89l-3.355-3.005a2.385,2.385,0,0,1-.928-1.787v-.642a2.228,2.228,0,0,1,.928-1.781,3.452,3.452,0,0,1,2.234-.748h1.588q2.968,0,3.162,2.529" transform="translate(0 0)" fill="#fff"/>
    <path id="Path_3898" data-name="Path 3898" d="M108.919,49.366v-11.4h7.912v1.271h-4.75v3.8h3.177V44.3h-3.177v3.8h4.75v1.271Z" transform="translate(0 0)" fill="#fff"/>
    <path id="Path_3899" data-name="Path 3899" d="M122.857,49.366v-11.4h3.162V48.1h4.75v1.271Z" transform="translate(0 0)" fill="#fff"/>
    <path id="Path_3900" data-name="Path 3900" d="M77.432,31.062V23.475A2.177,2.177,0,0,1,79.6,21.312h2.174a2.182,2.182,0,0,1,2.163,2.163v7.587H81.769V26.725H79.6v4.337ZM79.6,25.649h2.174V23.475a1.028,1.028,0,0,0-.323-.759,1.083,1.083,0,0,0-1.531,0,1.029,1.029,0,0,0-.32.759Z" transform="translate(0 0)" fill="#fff"/>
    <path id="Path_3901" data-name="Path 3901" d="M87.4,31.062v-9.75h.492L93.9,26.725V21.312h1.087v9.75h-.5l-6-5.413v5.413Z" transform="translate(0 0)" fill="#fff"/>
    <path id="Path_3902" data-name="Path 3902" d="M98.445,31.062v-9.75h4.337a2.182,2.182,0,0,1,2.163,2.163V28.9a2.187,2.187,0,0,1-2.163,2.163Zm2.163-1.087h1.087a1.088,1.088,0,0,0,1.087-1.076V23.475a1.028,1.028,0,0,0-.323-.759,1.051,1.051,0,0,0-.764-.317h-1.087Z" transform="translate(0 0)" fill="#fff"/>
    <path id="Path_3903" data-name="Path 3903" d="M16.607,47.916H12.736A2.343,2.343,0,0,1,10.4,45.58V6.794a2.343,2.343,0,0,1,2.336-2.337h3.871a2.343,2.343,0,0,1,2.336,2.337V45.58a2.343,2.343,0,0,1-2.336,2.336" transform="translate(0 0)" fill="#fff"/>
    <path id="Path_3904" data-name="Path 3904" d="M6.249,42.84H2.294A2.3,2.3,0,0,1,0,40.546V11.828A2.3,2.3,0,0,1,2.294,9.534H6.249a2.3,2.3,0,0,1,2.294,2.294V40.546A2.3,2.3,0,0,1,6.249,42.84" transform="translate(0 0)" fill="#fff"/>
    <path id="Path_3905" data-name="Path 3905" d="M26.975,52.373H23.17A2.376,2.376,0,0,1,20.8,50V2.369A2.376,2.376,0,0,1,23.17,0h3.805a2.376,2.376,0,0,1,2.369,2.369V50a2.376,2.376,0,0,1-2.369,2.369" transform="translate(0 0)" fill="#fff"/>
    <rect id="Rectangle_176" data-name="Rectangle 176" width="45.799" height="6.134" transform="translate(24.944 23.027)" fill="#fff"/>
    <path id="Path_3906" data-name="Path 3906" d="M165.77,47.916h3.871a2.343,2.343,0,0,0,2.336-2.336V6.794a2.343,2.343,0,0,0-2.336-2.337H165.77a2.343,2.343,0,0,0-2.336,2.337V45.58a2.343,2.343,0,0,0,2.336,2.336" transform="translate(0 0)" fill="#fff"/>
    <path id="Path_3907" data-name="Path 3907" d="M176.128,42.84h3.955a2.3,2.3,0,0,0,2.294-2.294V11.828a2.3,2.3,0,0,0-2.294-2.294h-3.955a2.3,2.3,0,0,0-2.294,2.294V40.546a2.3,2.3,0,0,0,2.294,2.294" transform="translate(0 0)" fill="#fff"/>
    <path id="Path_3908" data-name="Path 3908" d="M155.4,52.373h3.8A2.376,2.376,0,0,0,161.577,50V2.369A2.376,2.376,0,0,0,159.208,0h-3.8a2.376,2.376,0,0,0-2.369,2.369V50a2.376,2.376,0,0,0,2.369,2.369" transform="translate(0 0)" fill="#fff"/>
    <rect id="Rectangle_177" data-name="Rectangle 177" width="45.799" height="6.134" transform="translate(110.816 23.232)" fill="#fff"/>
  </g>
</svg>
