<svg xmlns="http://www.w3.org/2000/svg" width="164.395" height="26.403" viewBox="0 0 164.395 26.403">
  <g id="Group_312" data-name="Group 312" transform="translate(-200.224 -75.985)">
    <g id="noun_cart_2102832_4_" data-name="noun_cart_2102832 (4)" transform="translate(266.177 75.985)">
      <path id="Path_5" data-name="Path 5" d="M7.1,8.2H8.938l2.754,12.427a3.948,3.948,0,0,0-2.246,3.651A3.76,3.76,0,0,0,13,28.208H27.587a1.1,1.1,0,0,0,0-2.2H13a1.6,1.6,0,0,1-1.354-1.73A1.6,1.6,0,0,1,13,22.548H27.587a1.1,1.1,0,0,0,1.035-.727l3.715-10.31A1.1,1.1,0,0,0,31.3,10.038H11.6l-.7-3.176A1.1,1.1,0,0,0,9.821,6H7.1a1.1,1.1,0,0,0,0,2.2Zm22.636,4.038-2.922,8.11H13.883l-1.8-8.11H29.736Z" transform="translate(-6 -6)"/>
      <path id="Path_6" data-name="Path 6" d="M19.445,50a1.1,1.1,0,0,0,0,2.2h1.4a1.1,1.1,0,0,0,0-2.2Z" transform="translate(-11.554 -25.798)"/>
      <path id="Path_7" data-name="Path 7" d="M37.9,50a1.1,1.1,0,0,0,0,2.2h1.4a1.1,1.1,0,0,0,0-2.2Z" transform="translate(-19.857 -25.798)"/>
    </g>
    <path id="noun_Search_2102816_2_" data-name="noun_Search_2102816 (2)" d="M15.754,25.506a9.731,9.731,0,0,0,6.073-2.122l8.7,8.7a1.1,1.1,0,1,0,1.556-1.556l-8.7-8.7a9.759,9.759,0,1,0-7.629,3.677ZM10.412,10.413a7.555,7.555,0,1,1,0,10.684A7.5,7.5,0,0,1,10.412,10.413Z" transform="translate(194.22 69.985)"/>
    <g id="Group_5" data-name="Group 5" transform="translate(334 78.985)">
      <path id="Path_53" data-name="Path 53" d="M1864.327,76.6h30.59" transform="translate(-1864.327 -76.602)" fill="none" stroke="#e41c26" stroke-width="3"/>
      <path id="Path_54" data-name="Path 54" d="M1864.327,76.6h24.625" transform="translate(-1858.333 -66.602)" fill="none" stroke="#e41c26" stroke-width="3"/>
      <path id="Path_55" data-name="Path 55" d="M1864.327,76.6h17.723" transform="translate(-1852.059 -56.602)" fill="none" stroke="#e41c26" stroke-width="3"/>
    </g>
  </g>
</svg>
